<?xml version="1.0" encoding="utf-8"?>
<!-- Generator: Adobe Illustrator 17.1.0, SVG Export Plug-In . SVG Version: 6.00 Build 0)  -->
<!DOCTYPE svg PUBLIC "-//W3C//DTD SVG 1.1//EN" "http://www.w3.org/Graphics/SVG/1.1/DTD/svg11.dtd">
<svg version="1.1" id="Layer_1" xmlns="http://www.w3.org/2000/svg" xmlns:xlink="http://www.w3.org/1999/xlink" x="0px" y="0px"
	 viewBox="0 0 1512 528" enable-background="new 0 0 1512 528" xml:space="preserve">
<g id="Layer_2">
	<g>
		<path fill="#FFFFFF" stroke="#FFFFFF" stroke-width="8" stroke-miterlimit="10" d="M189.6,294.2c4.6-7.3,10.4-13.2,17.4-17.6
			c7-4.5,14.9-7.6,23.8-9.5c8.8-1.9,17.7-2.8,26.5-2.8c8,0,16.3,0.6,24.5,1.8s15.9,3.6,22.7,7.1c6.8,3.6,12.4,8.4,16.8,14.8
			s6.5,14.6,6.5,25.1v89.4c0,7.7,0.4,15.1,1.2,22.3c0.8,7.1,2.2,12.4,4.4,16h-44.7c-0.8-2.6-1.5-5.4-2-8.1c-0.5-2.7-0.9-5.6-1.1-8.4
			c-7,7.7-15.3,13.2-24.9,16.3c-9.6,3.2-19.3,4.7-29.2,4.7c-7.6,0-14.8-1-21.4-2.9c-6.6-2-12.4-5.1-17.4-9.4c-5-4.2-8.8-9.6-11.7-16
			c-2.8-6.4-4.2-14-4.2-23c0-9.8,1.6-17.8,4.8-24.1c3.3-6.3,7.3-11.4,12.4-15.1c5.1-3.8,10.9-6.6,17.4-8.4
			c6.5-1.9,13.1-3.4,19.7-4.5c6.6-1.1,13.1-2,19.6-2.6c6.4-0.7,12.1-1.6,17.1-2.9c5-1.3,8.9-3.3,11.8-5.8c2.9-2.5,4.3-6.3,4.1-11.2
			c0-5.1-0.8-9.1-2.3-12.1c-1.5-2.9-3.7-5.3-6.2-7c-2.6-1.6-5.6-2.7-9-3.4c-3.5-0.5-7.1-0.8-11.1-0.8c-8.7,0-15.5,2-20.5,6
			s-7.8,10.7-8.7,19.9h-44.1C182.4,310.8,185,301.5,189.6,294.2z M276.8,360.9c-2.8,1-5.8,1.8-9,2.5s-6.6,1.2-10.1,1.6
			c-3.6,0.4-7,1-10.6,1.6c-3.4,0.7-6.6,1.5-9.8,2.6c-3.3,1.1-6,2.6-8.4,4.5c-2.3,1.9-4.3,4.3-5.8,7.1c-1.4,2.8-2.1,6.5-2.1,11
			c0,4.2,0.7,7.7,2.1,10.7c1.4,2.8,3.5,5.2,5.9,6.8c2.4,1.6,5.4,2.8,8.7,3.5c3.4,0.7,6.7,1,10.3,1c8.7,0,15.4-1.5,20.2-4.7
			c4.8-3.2,8.2-6.8,10.6-11.2c2.2-4.4,3.7-8.7,4.2-13.1c0.5-4.5,0.8-8,0.8-10.7v-17.6C281.8,358.5,279.5,359.9,276.8,360.9z"/>
		<path fill="#FFFFFF" stroke="#FFFFFF" stroke-width="8" stroke-miterlimit="10" d="M461,418.9c-5.2,9.4-12,16.1-20.3,20.1
			c-8.4,4.1-17.9,6.2-28.5,6.2c-12,0-22.6-2.5-31.7-7.5c-9.1-5-16.7-11.8-22.6-20.3c-5.9-8.5-10.4-18.3-13.3-29.4
			c-3-11.1-4.5-22.6-4.5-34.6c0-11.5,1.5-22.7,4.5-33.4c3-10.8,7.4-20.2,13.3-28.5c5.9-8.2,13.3-14.8,22.3-19.8
			c8.9-5,19.3-7.5,31.1-7.5c9.6,0,18.6,2.1,27.1,6.5c8.6,4.4,15.3,10.7,20.3,19.1h0.6v-86.4h44.1v237.3h-42v-21.9H461z M459.1,333.9
			c-1.2-6.5-3.4-12.3-6.4-17.3c-3-5-6.9-9-11.7-12.1c-4.8-3.2-10.8-4.7-18-4.7s-13.3,1.5-18.3,4.7c-5,3.2-8.9,7.2-12,12.3
			s-5.2,10.9-6.5,17.5c-1.3,6.5-2,13.3-2,20.4c0,6.6,0.7,13.3,2.1,19.9c1.4,6.6,3.8,12.6,7,17.8c3.3,5.2,7.2,9.5,12.1,12.6
			c4.9,3.3,10.7,4.8,17.6,4.8c7.2,0,13.3-1.5,18.2-4.7s8.7-7.2,11.7-12.5c2.9-5.2,5-11.2,6.2-17.8c1.2-6.6,1.8-13.5,1.8-20.6
			C461,347.4,460.4,340.4,459.1,333.9z"/>
	</g>
	<g>
		<g>
			<path fill="#FFFFFF" stroke="#FFFFFF" stroke-width="8" stroke-miterlimit="10" d="M529.3,317c3.4-11.1,8.4-20.8,15.1-29
				c6.7-8.2,15-14.6,24.9-19.4c9.9-4.7,21.2-7.1,34-7.1c13,0,24.4,2.3,34.1,7.1c9.8,4.7,18,11.2,24.7,19.4
				c6.7,8.2,11.8,17.9,15.1,29c3.4,11.1,5.1,23.1,5.1,35.9c0,12.8-1.7,24.7-5.1,35.8c-3.4,11-8.4,20.6-15.1,28.9
				c-6.7,8.2-14.9,14.6-24.7,19.2s-21.1,6.9-34.1,6.9c-12.8,0-24.2-2.3-34-6.9c-9.9-4.6-18.2-11-24.9-19.2
				c-6.7-8.2-11.8-17.8-15.1-28.9c-3.4-11-5.1-23-5.1-35.8C524.3,340,526,328.1,529.3,317z M556.6,381c2.6,8.2,6.2,15,10.9,20.5
				c4.6,5.5,10.1,9.8,16.3,12.6c6.2,2.9,12.8,4.4,19.7,4.4c6.9,0,13.5-1.4,19.7-4.4c6.2-2.9,11.6-7.1,16.3-12.6
				c4.6-5.5,8.2-12.4,10.9-20.5c2.6-8.2,4-17.6,4-28.2c0-10.6-1.3-19.9-4-28.2c-2.6-8.2-6.3-15.1-10.9-20.7
				c-4.6-5.6-10.1-9.9-16.3-12.8c-6.2-2.9-12.8-4.4-19.7-4.4s-13.5,1.4-19.7,4.4c-6.2,2.9-11.6,7.2-16.3,12.8
				c-4.6,5.6-8.2,12.5-10.9,20.7c-2.6,8.2-4,17.6-4,28.2S554,372.9,556.6,381z"/>
			<path fill="#FFFFFF" stroke="#FFFFFF" stroke-width="8" stroke-miterlimit="10" d="M729.1,265.5v25.6h0.6
				c12.2-19.8,29.7-29.7,52.6-29.7c10.1,0,19.2,2.2,27.4,6.7s13.9,12.1,17.4,23c5.5-9.5,12.6-16.8,21.5-22
				c8.9-5.2,18.7-7.7,29.5-7.7c8.2,0,15.5,0.9,22.3,2.8c6.6,1.9,12.3,4.9,17,8.9c4.8,4.1,8.4,9.2,11.1,15.7c2.6,6.4,4,14.1,4,23.1
				v127.8h-26.8V325.6c0-5.4-0.4-10.5-1.2-15.1s-2.4-8.8-4.8-12.3c-2.3-3.5-5.5-6.2-9.7-8.2c-4.1-2-9.5-3-16-3
				c-13.2,0-23.7,4.1-31.2,12.1c-7.5,8.1-11.4,18.9-11.4,32.3v108.5h-26.7V325.6c0-5.6-0.5-10.8-1.4-15.5s-2.5-8.8-4.9-12.3
				c-2.3-3.5-5.4-6.2-9.2-8.1c-3.9-1.9-8.8-2.8-14.9-2.8c-7.7,0-14.4,1.7-20,5.1s-10.1,7.4-13.5,12.1c-3.5,4.7-6,9.7-7.5,14.6
				c-1.6,5.1-2.3,9.2-2.3,12.6v108.5H704V265.5H729.1z"/>
			<path fill="#FFFFFF" stroke="#FFFFFF" stroke-width="8" stroke-miterlimit="10" d="M1081.1,428.8c-12.2,9.9-27.5,14.8-46,14.8
				c-13,0-24.3-2.2-33.8-6.7c-9.6-4.5-17.6-10.8-24.1-18.9c-6.5-8.1-11.4-17.8-14.6-29c-3.3-11.3-5.1-23.5-5.5-36.8
				c0-13.2,1.9-25.4,5.7-36.4c3.8-11,9-20.5,16-28.7c6.8-8.1,14.9-14.3,24.3-18.9c9.4-4.5,19.6-6.7,30.7-6.7
				c14.5,0,26.5,3.3,36.1,9.7s17.2,14.5,23,24.4c5.8,9.9,9.8,20.6,12,32.3c2.2,11.7,3,22.8,2.6,33.3h-122
				c-0.2,7.6,0.6,14.9,2.5,21.7s5,12.9,9.1,18.2c4.2,5.3,9.6,9.5,16.1,12.6c6.5,3.2,14.2,4.7,23,4.7c11.4,0,20.6-2.8,27.8-8.4
				s12-14.1,14.3-25.6h26.4C1101.2,404.2,1093.3,418.8,1081.1,428.8z M1074.7,316.8c-2.4-6.1-5.7-11.3-9.8-15.7
				c-4.1-4.4-8.9-7.8-14.5-10.5c-5.6-2.5-11.7-3.9-18.4-3.9c-6.9,0-13.2,1.3-18.7,3.9c-5.6,2.5-10.4,6.1-14.3,10.6
				s-7.1,9.8-9.5,15.7c-2.3,6-3.7,12.3-4.1,19h93.6C1078.4,329.3,1077,322.9,1074.7,316.8z"/>
			<path fill="#FFFFFF" stroke="#FFFFFF" stroke-width="8" stroke-miterlimit="10" d="M1207.9,265.5v25.3h-32.4v108.2
				c0,3.4,0.3,6.1,0.8,8.1s1.5,3.6,2.9,4.7s3.6,1.8,6.1,2.2c2.6,0.3,6,0.5,10.3,0.5h12.3v25.3h-20.5c-6.9,0-12.9-0.5-17.8-1.5
				c-5-1-8.9-2.8-12-5.6c-3-2.7-5.3-6.5-6.8-11.5c-1.4-5-2.2-11.5-2.2-19.5v-111h-27.7v-25.3h27.7v-52.2h26.8v52.2H1207.9z"/>
			<path fill="#FFFFFF" stroke="#FFFFFF" stroke-width="8" stroke-miterlimit="10" d="M1258.9,265.5v36.8h0.6
				c6.5-14.1,14.5-24.6,24-31.3c9.5-6.7,21.4-9.9,35.9-9.5v30.3c-10.7,0-19.8,1.5-27.4,4.7c-7.5,3.2-13.6,7.7-18.3,13.8
				c-4.6,6.1-8,13.4-10.1,22.1c-2.1,8.6-3.2,18.6-3.2,29.9v77.5h-26.8V265.5H1258.9z"/>
			<path fill="#FFFFFF" stroke="#FFFFFF" stroke-width="8" stroke-miterlimit="10" d="M1416.1,484.4c-3,5.8-6.4,10.6-10.1,14.3
				c-3.7,3.7-7.7,6.4-12.1,8.1s-9.7,2.5-15.8,2.5c-3.2,0-6.3-0.2-9.5-0.7c-3.2-0.4-6.2-1.2-9.1-2.3V480c2.5,0.9,5.1,1.8,7.7,2.7
				c2.6,0.9,5.3,1.3,8,1.3c5.5,0,9.9-1.3,13.2-4.1c3.4-2.7,6.3-6.6,8.8-11.8l11.1-29.4l-64.6-173.3h30.3l47.6,142.6h0.6l45.7-142.6
				h28.4l-70.9,197.3C1422.3,471.3,1419.2,478.6,1416.1,484.4z"/>
		</g>
	</g>
	<g>
		<path fill="#FFFFFF" d="M1481.5,425.8c0.7,0,1.3,0.1,1.9,0.3c0.6,0.2,1.1,0.5,1.5,0.9c0.4,0.4,0.7,0.9,0.9,1.4
			c0.2,0.5,0.3,1.1,0.3,1.7c0,0.9-0.2,1.7-0.6,2.4c-0.4,0.7-1,1.2-1.9,1.5l0,0c0.4,0.1,0.8,0.3,1.1,0.5c0.3,0.2,0.5,0.5,0.7,0.9
			c0.2,0.3,0.3,0.7,0.4,1.1s0.1,0.8,0.2,1.2c0,0.3,0,0.5,0,0.9c0,0.3,0,0.7,0.1,1c0,0.4,0.1,0.7,0.2,1c0.1,0.3,0.2,0.6,0.4,0.8h-3.6
			c-0.2-0.5-0.3-1.1-0.4-1.8c0-0.7-0.1-1.4-0.2-2c-0.1-0.8-0.4-1.4-0.8-1.8c-0.4-0.4-1-0.6-1.9-0.6h-3.6v6.3h-3.6v-16.1h8.7V425.8z
			 M1480.3,433c0.8,0,1.4-0.2,1.8-0.5c0.4-0.4,0.6-0.9,0.6-1.7c0-0.8-0.2-1.3-0.6-1.7c-0.4-0.4-1-0.5-1.8-0.5h-3.9v4.5L1480.3,433
			L1480.3,433z"/>
	</g>
	<circle fill="none" stroke="#FFFFFF" stroke-width="3" stroke-miterlimit="10" cx="1479.9" cy="434.4" r="13.9"/>
</g>
<g id="Layer_3">
	<g>
		<polygon fill="#FFFFFF" stroke="#FFFFFF" stroke-miterlimit="10" points="170.1,31.3 180.3,116.7 187.7,116.7 182.3,24.5 		"/>
		<circle fill="#FFFFFF" stroke="#FFFFFF" stroke-miterlimit="10" cx="175.9" cy="27.8" r="13.2"/>
		<polygon fill="#FFFFFF" stroke="#FFFFFF" stroke-miterlimit="10" points="205.4,141.7 267.4,175.2 264.4,182.3 197.3,153.8 		"/>
		<circle fill="#FFFFFF" stroke="#FFFFFF" stroke-miterlimit="10" cx="274.5" cy="181.8" r="16.3"/>
		<polygon fill="#FFFFFF" stroke="#FFFFFF" stroke-miterlimit="10" points="201.3,122.8 210.8,139.6 333.5,80.1 330,75.3 		"/>
		<circle fill="#FFFFFF" stroke="#FFFFFF" stroke-miterlimit="10" cx="337.5" cy="75.6" r="19.8"/>
		<polygon fill="#FFFFFF" stroke="#FFFFFF" stroke-miterlimit="10" points="29.9,48.9 169.4,124.1 167.4,131.5 19.7,61.8 		"/>
		<circle fill="#FFFFFF" stroke="#FFFFFF" stroke-miterlimit="10" cx="25.5" cy="53.2" r="15.8"/>
		<polygon fill="#FFFFFF" stroke="#FFFFFF" stroke-miterlimit="10" points="95.6,136.3 164.8,130.9 165.4,147.8 97.7,142.4 		"/>
		<circle fill="#FFFFFF" stroke="#FFFFFF" stroke-miterlimit="10" cx="94.9" cy="139.6" r="19"/>
		<circle fill="#FFFFFF" stroke="#FFFFFF" stroke-miterlimit="10" cx="185.1" cy="138.6" r="30.5"/>
		<polygon fill="#FFFFFF" stroke="#FFFFFF" stroke-miterlimit="10" points="183.7,164.7 161.7,274.8 139.3,270.7 177.6,153.8 		"/>
		<circle fill="#FFFFFF" stroke="#FFFFFF" stroke-miterlimit="10" cx="147" cy="286" r="23.9"/>
	</g>
</g>
</svg>
